<svg width="143" height="58" viewBox="0 0 143 58" fill="none" xmlns="http://www.w3.org/2000/svg">
<path d="M51.5911 31L59.2076 6.07326H66.2356L73.8521 31H69.0052L62.2196 9.016H63.1197L56.438 31H51.5911ZM56.161 25.8069V21.4101H69.3168V25.8069H56.161ZM75.2236 31V6.07326H83.2902C83.4864 6.07326 83.8903 6.07904 84.5019 6.09058C85.1136 6.10212 85.7021 6.14251 86.2676 6.21175C88.2756 6.45409 89.9777 7.15227 91.3741 8.30628C92.7704 9.4603 93.8321 10.9259 94.5592 12.7031C95.2862 14.4803 95.6497 16.4248 95.6497 18.5366C95.6497 20.6485 95.2862 22.593 94.5592 24.3702C93.8321 26.1474 92.7704 27.613 91.3741 28.767C89.9777 29.921 88.2756 30.6192 86.2676 30.8615C85.7021 30.9308 85.1136 30.9711 84.5019 30.9827C83.8903 30.9942 83.4864 31 83.2902 31H75.2236ZM80.0013 26.5686H83.2902C83.6018 26.5686 84.023 26.5628 84.5539 26.5513C85.0847 26.5282 85.5636 26.4763 85.9906 26.3955C87.0754 26.1762 87.9582 25.6684 88.6391 24.8722C89.3315 24.0759 89.8392 23.1181 90.1624 21.9987C90.497 20.8793 90.6644 19.7253 90.6644 18.5366C90.6644 17.2903 90.4913 16.1074 90.1451 14.988C89.8104 13.8686 89.2969 12.9223 88.6045 12.1492C87.912 11.376 87.0408 10.8855 85.9906 10.6778C85.5636 10.5855 85.0847 10.5335 84.5539 10.522C84.023 10.5105 83.6018 10.5047 83.2902 10.5047H80.0013V26.5686ZM95.6646 31L103.281 6.07326H110.309L117.926 31H113.079L106.293 9.016H107.193L100.511 31H95.6646ZM100.234 25.8069V21.4101H113.39V25.8069H100.234ZM138.112 31.5193L130.842 24.2836L133.75 21.3755L140.986 28.6112L138.112 31.5193ZM129.319 31.5193C126.826 31.5193 124.674 30.9769 122.862 29.8921C121.062 28.8074 119.671 27.2898 118.69 25.3396C117.721 23.3893 117.236 21.1216 117.236 18.5366C117.236 15.9516 117.721 13.684 118.69 11.7337C119.671 9.78342 121.062 8.26589 122.862 7.18112C124.674 6.09635 126.826 5.55396 129.319 5.55396C131.811 5.55396 133.958 6.09635 135.758 7.18112C137.57 8.26589 138.96 9.78342 139.93 11.7337C140.911 13.684 141.401 15.9516 141.401 18.5366C141.401 21.1216 140.911 23.3893 139.93 25.3396C138.96 27.2898 137.57 28.8074 135.758 29.8921C133.958 30.9769 131.811 31.5193 129.319 31.5193ZM129.319 27.0879C130.9 27.111 132.215 26.7705 133.265 26.0666C134.316 25.3626 135.1 24.3644 135.62 23.0719C136.15 21.7794 136.416 20.2677 136.416 18.5366C136.416 16.8056 136.15 15.3054 135.62 14.036C135.1 12.7666 134.316 11.7799 133.265 11.0759C132.215 10.372 130.9 10.0085 129.319 9.98538C127.738 9.9623 126.422 10.3027 125.372 11.0067C124.322 11.7106 123.531 12.7089 123 14.0014C122.481 15.2938 122.221 16.8056 122.221 18.5366C122.221 20.2677 122.481 21.7679 123 23.0373C123.531 24.3067 124.322 25.2934 125.372 25.9973C126.422 26.7013 127.738 27.0648 129.319 27.0879Z" fill="#356365"/>
<path opacity="0.8" d="M1.69785 51.2201H2.01833L2.1909 52.1125C2.25335 52.1914 2.34045 52.2662 2.45221 52.3368C2.56397 52.4075 2.68805 52.47 2.82446 52.5242C2.96087 52.5784 3.10468 52.6212 3.25588 52.6524C3.40708 52.6836 3.555 52.6992 3.69963 52.6992C3.94944 52.6992 4.16638 52.6655 4.35045 52.5982C4.53452 52.5308 4.68654 52.4379 4.80652 52.3196C4.92649 52.2013 5.01607 52.0616 5.07523 51.9005C5.1344 51.7394 5.16398 51.5636 5.16398 51.3729C5.16398 51.1363 5.11385 50.9407 5.0136 50.7862C4.91335 50.6317 4.78187 50.5011 4.61916 50.3942C4.45645 50.2874 4.27156 50.197 4.06448 50.1231C3.8574 50.0491 3.64457 49.9743 3.42598 49.8987C3.2074 49.8231 2.99457 49.7393 2.78749 49.6473C2.58041 49.5552 2.39551 49.4385 2.23281 49.2972C2.0701 49.1559 1.93862 48.9808 1.83837 48.7721C1.73811 48.5634 1.68799 48.3062 1.68799 48.0005C1.68799 47.7441 1.73729 47.5115 1.8359 47.3028C1.93451 47.0941 2.07914 46.9166 2.26978 46.7703C2.46043 46.6241 2.69463 46.5115 2.97238 46.4326C3.25013 46.3537 3.5665 46.3143 3.9215 46.3143C4.24691 46.3143 4.55589 46.3356 4.84843 46.3784C5.14097 46.4211 5.4105 46.4704 5.65703 46.5263V47.9019H5.33655L5.16398 47.0933C5.01935 46.9881 4.84185 46.901 4.63149 46.832C4.42112 46.7629 4.18446 46.7284 3.9215 46.7284C3.67826 46.7284 3.46871 46.7547 3.29286 46.8073C3.11701 46.8599 2.97156 46.9314 2.85651 47.0218C2.74147 47.1122 2.65601 47.219 2.60013 47.3423C2.54425 47.4655 2.51631 47.5978 2.51631 47.7392C2.51631 47.9528 2.56644 48.1303 2.66669 48.2717C2.76694 48.413 2.89842 48.5338 3.06113 48.6341C3.22383 48.7343 3.40955 48.8206 3.61827 48.8929C3.827 48.9652 4.04065 49.04 4.25924 49.1172C4.47782 49.1945 4.69147 49.2816 4.9002 49.3786C5.10892 49.4755 5.29464 49.5988 5.45734 49.7483C5.62005 49.8979 5.75153 50.0803 5.85178 50.2956C5.95204 50.5109 6.00216 50.7764 6.00216 51.0919C6.00216 51.3976 5.95532 51.6737 5.86164 51.9202C5.76796 52.1667 5.62662 52.3779 5.43762 52.5538C5.24862 52.7296 5.01196 52.8644 4.72763 52.9581C4.44331 53.0518 4.10886 53.0986 3.72428 53.0986C3.52048 53.0986 3.31998 53.0887 3.12276 53.069C2.92554 53.0493 2.73982 53.023 2.56561 52.9901C2.3914 52.9573 2.23034 52.9195 2.08243 52.8767C1.93451 52.834 1.80632 52.7913 1.69785 52.7485V51.2201ZM12.8979 53H12.7254L10.3045 47.3151V52.6056L11.192 52.7387V53H8.93876V52.7387L9.7868 52.6056V46.7777L8.93876 46.6495V46.3882H10.9405L13.0902 51.4173L15.4371 46.3882H17.3304V46.6495L16.4824 46.7777V52.6056L17.3304 52.7387V53H14.6483V52.7387L15.5358 52.6056V47.3151L12.8979 53ZM21.9188 52.7387V53H19.7444V52.7387L20.4938 52.6056L22.7471 46.334H23.6839L26.0259 52.6056L26.864 52.7387V53H24.0684V52.7387L24.9559 52.6056L24.3002 50.6975H21.6969L21.0313 52.6056L21.9188 52.7387ZM22.9788 47.044L21.8448 50.2537H24.1473L22.9788 47.044ZM31.048 50.1009V52.6056L32.0489 52.7387V53H29.3125V52.7387L30.0965 52.6056V46.7777L29.2484 46.6495V46.3882H32.1032C32.5666 46.3882 32.9537 46.4293 33.2643 46.5115C33.5749 46.5937 33.8239 46.7112 34.0113 46.864C34.1986 47.0169 34.3317 47.2017 34.4106 47.4187C34.4895 47.6356 34.529 47.8805 34.529 48.1533C34.529 48.4064 34.492 48.6324 34.418 48.8313C34.3441 49.0301 34.2446 49.2052 34.1197 49.3564C33.9948 49.5076 33.8502 49.6333 33.6859 49.7336C33.5215 49.8338 33.3506 49.9102 33.1731 49.9628L34.9629 52.6056L35.6778 52.7387V53H34.0951L32.2363 50.1009H31.048ZM33.5478 48.2224C33.5478 47.9594 33.5166 47.7392 33.4541 47.5617C33.3917 47.3842 33.2939 47.2412 33.1608 47.1327C33.0276 47.0243 32.8567 46.947 32.648 46.901C32.4393 46.855 32.187 46.832 31.8912 46.832H31.048V49.6571H31.9207C32.2231 49.6571 32.4779 49.63 32.685 49.5758C32.892 49.5215 33.0597 49.4361 33.1879 49.3194C33.3161 49.2027 33.4081 49.054 33.464 48.8732C33.5199 48.6924 33.5478 48.4755 33.5478 48.2224ZM38.6587 53V52.7387L39.7089 52.6056V46.8122H39.4575C39.0269 46.8122 38.6653 46.8221 38.3728 46.8418C38.0802 46.8615 37.8732 46.8846 37.7515 46.9108L37.6184 47.9413H37.2881V46.3882H43.106V47.9413H42.7708L42.6376 46.9108C42.5785 46.8977 42.4906 46.8862 42.3739 46.8763C42.2572 46.8665 42.1216 46.8574 41.9671 46.8492C41.8126 46.841 41.6442 46.8344 41.4617 46.8295C41.2793 46.8246 41.0928 46.8221 40.9021 46.8221H40.6605V52.6056L41.7107 52.7387V53H38.6587ZM51.7452 50.1009V52.6056L52.7461 52.7387V53H50.0097V52.7387L50.7937 52.6056V46.7777L49.9456 46.6495V46.3882H52.8004C53.2638 46.3882 53.6509 46.4293 53.9615 46.5115C54.2721 46.5937 54.5211 46.7112 54.7085 46.864C54.8958 47.0169 55.0289 47.2017 55.1078 47.4187C55.1867 47.6356 55.2262 47.8805 55.2262 48.1533C55.2262 48.4064 55.1892 48.6324 55.1152 48.8313C55.0413 49.0301 54.9418 49.2052 54.8169 49.3564C54.692 49.5076 54.5474 49.6333 54.383 49.7336C54.2187 49.8338 54.0478 49.9102 53.8703 49.9628L55.66 52.6056L56.375 52.7387V53H54.7923L52.9335 50.1009H51.7452ZM54.245 48.2224C54.245 47.9594 54.2138 47.7392 54.1513 47.5617C54.0889 47.3842 53.9911 47.2412 53.858 47.1327C53.7248 47.0243 53.5539 46.947 53.3452 46.901C53.1365 46.855 52.8842 46.832 52.5884 46.832H51.7452V49.6571H52.6179C52.9203 49.6571 53.1751 49.63 53.3822 49.5758C53.5892 49.5215 53.7569 49.4361 53.8851 49.3194C54.0133 49.2027 54.1053 49.054 54.1612 48.8732C54.2171 48.6924 54.245 48.4755 54.245 48.2224ZM58.7002 52.7387L59.5482 52.6056V46.7777L58.7002 46.6495V46.3882H63.6603V47.9709H63.3348L63.1771 46.901C63.0719 46.8878 62.9445 46.8763 62.7949 46.8665C62.6454 46.8566 62.4934 46.8492 62.3389 46.8443C62.1844 46.8394 62.0381 46.8361 61.9001 46.8344C61.762 46.8328 61.6552 46.832 61.5796 46.832H60.4998V49.4155H62.2846L62.4375 48.6267H62.753V50.658H62.4375L62.2846 49.8593H60.4998V52.5563H61.8015C62.0053 52.5563 62.1975 52.5538 62.3783 52.5489C62.5591 52.5439 62.7218 52.5382 62.8664 52.5316C63.0111 52.525 63.1352 52.5168 63.2387 52.507C63.3422 52.4971 63.4187 52.4872 63.468 52.4774L63.749 51.2546H64.0744L63.9807 53H58.7002V52.7387ZM70.413 53.0986C69.874 53.0986 69.3933 53.023 68.9709 52.8718C68.5485 52.7206 68.1919 52.502 67.901 52.2161C67.6101 51.9301 67.389 51.5808 67.2378 51.1683C67.0866 50.7558 67.011 50.2899 67.011 49.7705C67.011 49.1789 67.0874 48.6661 67.2403 48.2322C67.3931 47.7983 67.615 47.4392 67.9059 47.1549C68.1968 46.8706 68.5543 46.6594 68.9783 46.5213C69.4023 46.3833 69.8871 46.3143 70.4328 46.3143C70.6596 46.3143 70.8732 46.3217 71.0737 46.3364C71.2742 46.3512 71.4657 46.3701 71.6481 46.3931C71.8306 46.4162 72.0039 46.4425 72.1683 46.472C72.3326 46.5016 72.4921 46.5328 72.6466 46.5657L72.6761 48.0103H72.3507L72.2028 47.1524C71.9727 47.0111 71.7057 46.9018 71.4016 46.8246C71.0976 46.7473 70.7878 46.7087 70.4722 46.7087C70.0876 46.7087 69.745 46.7613 69.4442 46.8665C69.1434 46.9717 68.8895 47.1434 68.6824 47.3817C68.4754 47.62 68.3168 47.9339 68.2067 48.3234C68.0965 48.7129 68.0415 49.192 68.0415 49.7607C68.0415 50.2603 68.0957 50.695 68.2042 51.0648C68.3127 51.4346 68.4688 51.7419 68.6726 51.9868C68.8764 52.2317 69.1254 52.4149 69.4196 52.5365C69.7137 52.6582 70.0482 52.719 70.4229 52.719C70.6267 52.719 70.8215 52.7058 71.0072 52.6795C71.1929 52.6532 71.3654 52.6171 71.5249 52.571C71.6843 52.525 71.8273 52.4716 71.9538 52.4108C72.0804 52.35 72.1864 52.2867 72.2718 52.221L72.4543 51.2349H72.7747L72.7452 52.788C72.6071 52.8274 72.4493 52.8661 72.2718 52.9039C72.0943 52.9417 71.9053 52.9753 71.7048 53.0049C71.5043 53.0345 71.294 53.0575 71.0737 53.074C70.8535 53.0904 70.6333 53.0986 70.413 53.0986ZM77.4419 50.1009V52.6056L78.4428 52.7387V53H75.7064V52.7387L76.4904 52.6056V46.7777L75.6423 46.6495V46.3882H78.4971C78.9605 46.3882 79.3476 46.4293 79.6582 46.5115C79.9688 46.5937 80.2178 46.7112 80.4052 46.864C80.5925 47.0169 80.7256 47.2017 80.8045 47.4187C80.8834 47.6356 80.9229 47.8805 80.9229 48.1533C80.9229 48.4064 80.8859 48.6324 80.8119 48.8313C80.738 49.0301 80.6385 49.2052 80.5136 49.3564C80.3887 49.5076 80.2441 49.6333 80.0798 49.7336C79.9154 49.8338 79.7445 49.9102 79.567 49.9628L81.3567 52.6056L82.0717 52.7387V53H80.489L78.6302 50.1009H77.4419ZM79.9417 48.2224C79.9417 47.9594 79.9105 47.7392 79.848 47.5617C79.7856 47.3842 79.6878 47.2412 79.5547 47.1327C79.4215 47.0243 79.2506 46.947 79.0419 46.901C78.8332 46.855 78.5809 46.832 78.2851 46.832H77.4419V49.6571H78.3146C78.617 49.6571 78.8718 49.63 79.0789 49.5758C79.2859 49.5215 79.4536 49.4361 79.5818 49.3194C79.71 49.2027 79.802 49.054 79.8579 48.8732C79.9138 48.6924 79.9417 48.4755 79.9417 48.2224ZM89.8204 46.7777L88.9329 46.6495V46.3882H91.1862V46.6495L90.3381 46.7777V50.727C90.3381 51.0294 90.3003 51.3228 90.2247 51.6071C90.1491 51.8915 90.016 52.1437 89.8254 52.364C89.6347 52.5842 89.3742 52.7617 89.0439 52.8965C88.7135 53.0312 88.2953 53.0986 87.7891 53.0986C86.9114 53.0986 86.2549 52.9006 85.8193 52.5045C85.3838 52.1084 85.166 51.5472 85.166 50.8207V46.7777L84.318 46.6495V46.3882H86.9607V46.6495L86.1127 46.7777V50.7468C86.1127 51.0163 86.1447 51.262 86.2088 51.4839C86.2729 51.7057 86.3748 51.8956 86.5145 52.0533C86.6542 52.2111 86.835 52.3327 87.0569 52.4182C87.2788 52.5037 87.5475 52.5464 87.863 52.5464C88.2082 52.5464 88.504 52.5037 88.7505 52.4182C88.997 52.3327 89.2 52.2128 89.3594 52.0583C89.5188 51.9038 89.6355 51.7164 89.7095 51.4962C89.7834 51.276 89.8204 51.0327 89.8204 50.7665V46.7777ZM95.5773 52.6056L96.4253 52.7387V53H93.7826V52.7387L94.6306 52.6056V46.7777L93.7826 46.6495V46.3882H96.4253V46.6495L95.5773 46.7777V52.6056ZM100.353 53V52.7387L101.403 52.6056V46.8122H101.152C100.721 46.8122 100.36 46.8221 100.067 46.8418C99.7744 46.8615 99.5673 46.8846 99.4457 46.9108L99.3126 47.9413H98.9823V46.3882H104.8V47.9413H104.465L104.332 46.9108C104.273 46.8977 104.185 46.8862 104.068 46.8763C103.951 46.8665 103.816 46.8574 103.661 46.8492C103.507 46.841 103.338 46.8344 103.156 46.8295C102.973 46.8246 102.787 46.8221 102.596 46.8221H102.355V52.6056L103.405 52.7387V53H100.353ZM111.237 53H111.065L108.644 47.3151V52.6056L109.532 52.7387V53H107.278V52.7387L108.126 52.6056V46.7777L107.278 46.6495V46.3882H109.28L111.43 51.4173L113.777 46.3882H115.67V46.6495L114.822 46.7777V52.6056L115.67 52.7387V53H112.988V52.7387L113.875 52.6056V47.3151L111.237 53ZM118.276 52.7387L119.124 52.6056V46.7777L118.276 46.6495V46.3882H123.236V47.9709H122.911L122.753 46.901C122.648 46.8878 122.521 46.8763 122.371 46.8665C122.221 46.8566 122.069 46.8492 121.915 46.8443C121.76 46.8394 121.614 46.8361 121.476 46.8344C121.338 46.8328 121.231 46.832 121.156 46.832H120.076V49.4155H121.861L122.014 48.6267H122.329V50.658H122.014L121.861 49.8593H120.076V52.5563H121.378C121.581 52.5563 121.774 52.5538 121.954 52.5489C122.135 52.5439 122.298 52.5382 122.442 52.5316C122.587 52.525 122.711 52.5168 122.815 52.507C122.918 52.4971 122.995 52.4872 123.044 52.4774L123.325 51.2546H123.65L123.557 53H118.276V52.7387ZM131.868 46.7777L130.98 46.6495V46.3882H133.233V46.6495L132.385 46.7777V53H131.907L127.83 47.0538V52.6056L128.717 52.7387V53H126.464V52.7387L127.312 52.6056V46.7777L126.464 46.6495V46.3882H128.466L131.868 51.2842V46.7777ZM137.038 53V52.7387L138.088 52.6056V46.8122H137.836C137.406 46.8122 137.044 46.8221 136.752 46.8418C136.459 46.8615 136.252 46.8846 136.131 46.9108L135.997 47.9413H135.667V46.3882H141.485V47.9413H141.15L141.017 46.9108C140.957 46.8977 140.87 46.8862 140.753 46.8763C140.636 46.8665 140.501 46.8574 140.346 46.8492C140.192 46.841 140.023 46.8344 139.841 46.8295C139.658 46.8246 139.472 46.8221 139.281 46.8221H139.039V52.6056L140.09 52.7387V53H137.038Z" fill="#2A636C"/>
</svg>
