<svg width="1440" height="540" viewBox="0 0 1440 540" fill="none" xmlns="http://www.w3.org/2000/svg">
<g clip-path="url(#clip0_413_3418)">
<rect width="1440" height="540" fill="#00383A"/>
<g opacity="0.2" clip-path="url(#clip1_413_3418)">
<g filter="url(#filter0_f_413_3418)">
<rect x="-135.5" y="-76.3896" width="542" height="305.59" rx="152.795" fill="#14B8A6"/>
</g>
<g filter="url(#filter1_f_413_3418)">
<rect x="1169" y="387.2" width="406.5" height="229.19" rx="114.595" fill="#2DD4BF"/>
</g>
<g style="mix-blend-mode:soft-light" opacity="0.7" clip-path="url(#clip2_413_3418)">
<mask id="mask0_413_3418" style="mask-type:luminance" maskUnits="userSpaceOnUse" x="0" y="0" width="1440" height="540">
<path d="M1440 0H0V540H1440V0Z" fill="white"/>
</mask>
<g mask="url(#mask0_413_3418)">
<mask id="mask1_413_3418" style="mask-type:luminance" maskUnits="userSpaceOnUse" x="0" y="0" width="1440" height="540">
<path d="M1440 0H0V540H1440V0Z" fill="white"/>
</mask>
<g mask="url(#mask1_413_3418)">
<path d="M1440 0H0V540H1440V0Z" fill="black"/>
<path opacity="0.06" fill-rule="evenodd" clip-rule="evenodd" d="M1440 512.758C855.769 462.02 518.473 343.503 0 341.939V100.333C791.578 84.938 996.661 238.632 1440 355.174V512.758Z" fill="#00B9B9"/>
<path opacity="0.06" fill-rule="evenodd" clip-rule="evenodd" d="M838.057 175.178C1150.2 269.468 1050.73 409.553 1440 486.433V355.165C1213.84 295.712 1049.68 226.589 838.057 175.178Z" fill="#00B9B9"/>
<path opacity="0.06" fill-rule="evenodd" clip-rule="evenodd" d="M1440 486.433C1050.72 409.553 1150.2 269.466 838.029 175.17C634.815 125.802 387.769 92.7735 0 100.319V205.088C185.023 277.951 668.066 285.432 985.375 456.34C1123.19 477.848 1271.3 498.148 1440 512.796V486.433Z" fill="#00B9B9"/>
<path opacity="0.06" fill-rule="evenodd" clip-rule="evenodd" d="M985.375 456.339C668.066 285.432 185.023 277.95 0 205.088V341.938C368.78 343.056 645.867 403.354 985.375 456.339Z" fill="#00B9B9"/>
<path opacity="0.06" fill-rule="evenodd" clip-rule="evenodd" d="M1440 512.796C1271.3 498.148 1123.19 477.848 985.375 456.34C690.522 410.324 442.758 358.787 141.119 345.293C612.059 350.926 904.73 450.75 1440 498.069V512.796L1440 512.796Z" fill="#00B9B9"/>
<path opacity="0.06" fill-rule="evenodd" clip-rule="evenodd" d="M141.119 345.292C95.4317 343.249 48.5085 342.079 0 341.932V334.38C39.7475 339.127 86.3839 342.845 141.119 345.292Z" fill="#00B9B9"/>
<path opacity="0.06" fill-rule="evenodd" clip-rule="evenodd" d="M1440 355.157C1230.18 299.997 1073.69 236.518 883.189 186.579C868.367 182.693 853.333 178.889 838.029 175.17C634.812 125.802 387.769 92.7735 0 100.319V0H1440V355.157Z" fill="#00B9B9"/>
<path opacity="0.06" fill-rule="evenodd" clip-rule="evenodd" d="M1440 9.95152C1432.7 6.58867 1425.38 3.28226 1418.06 0H1440V9.95152Z" fill="#00B9B9"/>
<path opacity="0.06" fill-rule="evenodd" clip-rule="evenodd" d="M924.707 0C1152.2 64.7911 1301.65 136.9 1440 205.015V355.157C1230.18 299.997 1073.69 236.518 883.189 186.579C868.367 182.693 853.333 178.889 838.056 175.178C560.063 102.523 281.961 54.0744 0 14.146V0H924.707Z" fill="#00B9B9"/>
<path opacity="0.06" fill-rule="evenodd" clip-rule="evenodd" d="M924.707 0C1152.2 64.7911 1301.65 136.9 1440 205.015V9.95152C1432.7 6.58867 1425.38 3.28225 1418.06 0H924.707Z" fill="#00B9B9"/>
<path opacity="0.06" fill-rule="evenodd" clip-rule="evenodd" d="M838.056 175.177C560.063 102.522 281.961 54.0739 0 14.1455V100.318C387.789 92.7724 634.835 125.804 838.056 175.177Z" fill="#00B9B9"/>
<path opacity="0.06" fill-rule="evenodd" clip-rule="evenodd" d="M0 341.932C48.5085 342.079 95.4317 343.249 141.119 345.292C442.758 358.786 690.522 410.323 985.375 456.339C1123.19 477.848 1271.3 498.148 1440 512.796V540H0V341.932Z" fill="#00B9B9"/>
<path opacity="0.06" fill-rule="evenodd" clip-rule="evenodd" d="M0 341.938C518.473 343.502 855.769 462.019 1440 512.757V540H0V341.938Z" fill="#00B9B9"/>
<path opacity="0.06" fill-rule="evenodd" clip-rule="evenodd" d="M0 420.489C264.94 473.077 530.764 512.912 797.468 540H1440V512.796C1271.3 498.148 1123.19 477.848 985.375 456.34C645.867 403.355 368.78 343.056 0 341.938V420.489Z" fill="#00B9B9"/>
<path opacity="0.06" fill-rule="evenodd" clip-rule="evenodd" d="M612.896 121.335C972.323 162.677 1163.06 251.955 1440 330.68V355.156C1230.18 299.997 1073.69 236.518 883.189 186.579C868.367 182.693 853.333 178.889 838.056 175.178C634.835 125.805 387.789 92.7728 0 100.319V100.025C254.241 93.79 450.741 102.683 612.896 121.335Z" fill="#00B9B9"/>
<path opacity="0.06" fill-rule="evenodd" clip-rule="evenodd" d="M786.595 146.972C682.695 93.3541 551.906 44.3665 394.264 0H924.708C1152.2 64.7916 1301.65 136.9 1440 205.015V330.684C1211.27 265.662 1041.33 193.439 786.595 146.972Z" fill="#00B9B9"/>
<path opacity="0.06" fill-rule="evenodd" clip-rule="evenodd" d="M1440 204.065C1287.11 124.79 1140.99 57.453 992.633 0H1418.08C1425.39 3.2801 1432.7 6.58544 1440 9.94518V204.065Z" fill="#00B9B9"/>
<path opacity="0.06" fill-rule="evenodd" clip-rule="evenodd" d="M0 420.493C206.18 461.423 412.895 494.633 620.14 520.118C641.476 527.22 663.531 533.808 686.669 540H0V420.493Z" fill="#00B9B9"/>
<path opacity="0.06" fill-rule="evenodd" clip-rule="evenodd" d="M985.375 456.34C1123.19 477.848 1271.3 498.148 1440 512.796V535.895C1245.55 516.964 1063.86 493.983 972.451 454.315C976.749 454.992 981.057 455.666 985.375 456.34" fill="#00B9B9"/>
<path opacity="0.06" fill-rule="evenodd" clip-rule="evenodd" d="M141.119 345.292C506.03 363.474 403.834 450.502 620.141 520.119C412.896 494.633 206.18 461.423 0 420.493V341.932C48.5085 342.079 95.4317 343.249 141.119 345.292Z" fill="#00B9B9"/>
<path opacity="0.06" fill-rule="evenodd" clip-rule="evenodd" d="M141.05 345.289C86.3936 342.844 39.7076 339.147 0 334.408V315.955C39.3879 326.841 86.3872 336.623 141.05 345.289Z" fill="#00B9B9"/>
<path opacity="0.06" fill-rule="evenodd" clip-rule="evenodd" d="M1296.83 448.729C882.665 330.253 873.384 157.495 0 105.776V100.319C387.769 92.7735 634.812 125.803 838.056 175.178C1104.24 255.586 1070.99 369.308 1296.83 448.729Z" fill="#00B9B9"/>
<path opacity="0.06" fill-rule="evenodd" clip-rule="evenodd" d="M1440 187.336C1378.56 126.063 1298.14 61.8906 1178.82 0H1418.07C1425.39 3.28117 1432.7 6.59974 1440 9.96097L1440 187.336ZM1418.07 0C1425.39 3.28063 1432.7 6.59867 1440 9.95935C1432.7 6.59853 1425.39 3.2805 1418.07 0Z" fill="#00B9B9"/>
<path opacity="0.06" fill-rule="evenodd" clip-rule="evenodd" d="M1440 288.891C1217.71 202.422 978.298 94.4087 662.838 0H924.703C1152.2 64.7906 1301.66 136.899 1440 205.012V288.891Z" fill="#00B9B9"/>
<path opacity="0.06" fill-rule="evenodd" clip-rule="evenodd" d="M0 512.758C584.23 462.02 921.526 343.503 1440 341.939V100.333C648.422 84.938 443.338 238.632 0 355.174V512.758Z" fill="#00B9B9"/>
<path opacity="0.06" fill-rule="evenodd" clip-rule="evenodd" d="M601.943 175.178C289.796 269.468 389.272 409.553 0 486.433V355.165C226.161 295.712 390.317 226.589 601.943 175.178Z" fill="#00B9B9"/>
<path opacity="0.06" fill-rule="evenodd" clip-rule="evenodd" d="M0 486.433C389.275 409.553 289.802 269.466 601.969 175.17C805.184 125.802 1052.23 92.7735 1440 100.319V205.088C1254.98 277.951 771.933 285.432 454.624 456.34C316.808 477.848 168.701 498.148 0 512.796V486.433Z" fill="#00B9B9"/>
<path opacity="0.06" fill-rule="evenodd" clip-rule="evenodd" d="M454.625 456.339C771.934 285.432 1254.98 277.95 1440 205.088V341.938C1071.22 343.056 794.133 403.354 454.625 456.339Z" fill="#00B9B9"/>
<path opacity="0.06" fill-rule="evenodd" clip-rule="evenodd" d="M0 512.796C168.701 498.148 316.808 477.848 454.624 456.34C749.476 410.324 997.241 358.787 1298.88 345.293C827.94 350.926 535.27 450.75 0 498.069V512.796Z" fill="#00B9B9"/>
<path opacity="0.06" fill-rule="evenodd" clip-rule="evenodd" d="M1298.88 345.292C1344.57 343.249 1391.49 342.079 1440 341.932V334.38C1400.25 339.127 1353.62 342.845 1298.88 345.292Z" fill="#00B9B9"/>
<path opacity="0.06" fill-rule="evenodd" clip-rule="evenodd" d="M0 355.157C209.82 299.997 366.305 236.518 556.81 186.579C571.632 182.693 586.666 178.889 601.969 175.17C805.187 125.802 1052.23 92.7734 1440 100.319V0H0V355.157Z" fill="#00B9B9"/>
<path opacity="0.06" fill-rule="evenodd" clip-rule="evenodd" d="M0 9.95152C7.30039 6.58867 14.6176 3.28226 21.9419 0H0V9.95152Z" fill="#00B9B9"/>
<path opacity="0.06" fill-rule="evenodd" clip-rule="evenodd" d="M515.292 0C287.799 64.7911 138.347 136.9 0 205.015V355.157C209.82 299.997 366.305 236.518 556.81 186.579C571.632 182.693 586.666 178.889 601.943 175.178C879.937 102.523 1158.04 54.0744 1440 14.146V0H515.292Z" fill="#00B9B9"/>
<path opacity="0.06" fill-rule="evenodd" clip-rule="evenodd" d="M515.292 0C287.799 64.7911 138.347 136.9 0 205.015V9.95152C7.30039 6.58867 14.6176 3.28225 21.9419 0H515.292Z" fill="#00B9B9"/>
<path opacity="0.06" fill-rule="evenodd" clip-rule="evenodd" d="M601.943 175.177C879.937 102.522 1158.04 54.0739 1440 14.1455V100.318C1052.21 92.7724 805.164 125.804 601.943 175.177Z" fill="#00B9B9"/>
<path opacity="0.06" fill-rule="evenodd" clip-rule="evenodd" d="M1440 341.932C1391.49 342.079 1344.57 343.249 1298.88 345.292C997.241 358.786 749.476 410.323 454.624 456.339C316.808 477.848 168.701 498.148 0 512.796V540H1440V341.932Z" fill="#00B9B9"/>
<path opacity="0.06" fill-rule="evenodd" clip-rule="evenodd" d="M1440 341.938C921.526 343.502 584.23 462.019 0 512.757V540H1440V341.938Z" fill="#00B9B9"/>
<path opacity="0.06" fill-rule="evenodd" clip-rule="evenodd" d="M1440 420.489C1175.06 473.077 909.235 512.912 642.531 540H0V512.796C168.701 498.148 316.808 477.848 454.624 456.34C794.132 403.355 1071.22 343.056 1440 341.938V420.489Z" fill="#00B9B9"/>
<path opacity="0.06" fill-rule="evenodd" clip-rule="evenodd" d="M827.103 121.335C467.677 162.677 276.934 251.955 0 330.68V355.156C209.82 299.997 366.305 236.518 556.81 186.579C571.632 182.693 586.666 178.889 601.943 175.178C805.164 125.805 1052.21 92.7729 1440 100.319V100.025C1185.76 93.79 989.258 102.683 827.103 121.335Z" fill="#00B9B9"/>
<path opacity="0.06" fill-rule="evenodd" clip-rule="evenodd" d="M653.405 146.972C757.305 93.3541 888.094 44.3665 1045.74 0H515.292C287.799 64.7916 138.347 136.9 0 205.015V330.684C228.732 265.662 398.666 193.439 653.405 146.972Z" fill="#00B9B9"/>
<path opacity="0.06" fill-rule="evenodd" clip-rule="evenodd" d="M0 204.065C152.892 124.79 299.009 57.453 447.366 0H21.9217C14.6045 3.2801 7.2973 6.58544 0 9.94518V204.065Z" fill="#00B9B9"/>
<path opacity="0.06" fill-rule="evenodd" clip-rule="evenodd" d="M1440 420.493C1233.82 461.423 1027.1 494.633 819.859 520.118C798.523 527.22 776.469 533.808 753.33 540H1440V420.493Z" fill="#00B9B9"/>
<path opacity="0.06" fill-rule="evenodd" clip-rule="evenodd" d="M454.624 456.34C316.808 477.848 168.701 498.148 0 512.796V535.895C194.446 516.964 376.141 493.983 467.548 454.315C463.25 454.992 458.942 455.666 454.624 456.34Z" fill="#00B9B9"/>
<path opacity="0.06" fill-rule="evenodd" clip-rule="evenodd" d="M1298.88 345.292C933.969 363.474 1036.16 450.502 819.857 520.119C1027.1 494.633 1233.82 461.423 1440 420.493V341.932C1391.49 342.079 1344.57 343.249 1298.88 345.292Z" fill="#00B9B9"/>
<path opacity="0.06" fill-rule="evenodd" clip-rule="evenodd" d="M1298.95 345.289C1353.61 342.844 1400.29 339.147 1440 334.408V315.955C1400.61 326.841 1353.61 336.623 1298.95 345.289Z" fill="#00B9B9"/>
<path opacity="0.06" fill-rule="evenodd" clip-rule="evenodd" d="M143.166 448.729C557.334 330.253 566.616 157.495 1440 105.776V100.319C1052.23 92.7735 805.187 125.803 601.943 175.178C335.757 255.586 369.008 369.308 143.166 448.729Z" fill="#00B9B9"/>
<path opacity="0.06" fill-rule="evenodd" clip-rule="evenodd" d="M0 187.336C61.4353 126.063 141.857 61.8906 261.182 0H21.9318C14.6109 3.28117 7.30039 6.59974 0 9.96097V187.336Z" fill="#00B9B9"/>
<path opacity="0.06" fill-rule="evenodd" clip-rule="evenodd" d="M0 288.891C222.292 202.422 461.701 94.4087 777.161 0H515.295C287.795 64.7906 138.344 136.899 0 205.012V288.891Z" fill="#00B9B9"/>
<path opacity="0.06" fill-rule="evenodd" clip-rule="evenodd" d="M0 27.2441C584.23 77.9809 921.526 196.499 1440 198.062V439.668C648.422 455.064 443.338 301.369 0 184.828V27.2441Z" fill="#00B9B9"/>
<path opacity="0.06" fill-rule="evenodd" clip-rule="evenodd" d="M601.943 364.824C289.796 270.532 389.272 130.448 0 53.5674V184.835C226.161 244.289 390.317 313.412 601.943 364.824Z" fill="#00B9B9"/>
<path opacity="0.06" fill-rule="evenodd" clip-rule="evenodd" d="M0 53.5675C389.275 130.448 289.802 270.535 601.969 364.83C805.184 414.199 1052.23 447.227 1440 439.683V334.913C1254.98 262.05 771.933 254.569 454.624 83.6609C316.808 62.1537 168.701 41.8531 0 27.2051V53.5675Z" fill="#00B9B9"/>
<path opacity="0.06" fill-rule="evenodd" clip-rule="evenodd" d="M454.625 83.6602C771.934 254.568 1254.98 262.049 1440 334.912V198.063C1071.22 196.944 794.133 136.646 454.625 83.6602Z" fill="#00B9B9"/>
<path opacity="0.06" fill-rule="evenodd" clip-rule="evenodd" d="M0 27.2042C168.701 41.8523 316.808 62.1529 454.624 83.66C749.476 129.677 997.241 181.214 1298.88 194.707C827.94 189.074 535.27 89.2504 0 41.9313V27.2041V27.2042Z" fill="#00B9B9"/>
<path opacity="0.06" fill-rule="evenodd" clip-rule="evenodd" d="M1298.88 194.707C1344.57 196.751 1391.49 197.921 1440 198.068V205.62C1400.25 200.873 1353.62 197.155 1298.88 194.707Z" fill="#00B9B9"/>
<path opacity="0.06" fill-rule="evenodd" clip-rule="evenodd" d="M0 184.844C209.82 240.003 366.305 303.482 556.81 353.421C571.632 357.307 586.666 361.111 601.969 364.829C805.187 414.199 1052.23 447.226 1440 439.682V540H0V184.844Z" fill="#00B9B9"/>
<path opacity="0.06" fill-rule="evenodd" clip-rule="evenodd" d="M0 530.049C7.30039 533.412 14.6179 536.718 21.9419 540H0V530.049Z" fill="#00B9B9"/>
<path opacity="0.06" fill-rule="evenodd" clip-rule="evenodd" d="M515.292 540C287.799 475.209 138.347 403.1 0 334.985V184.844C209.82 240.003 366.305 303.482 556.81 353.421C571.632 357.307 586.666 361.111 601.943 364.823C879.936 437.478 1158.04 485.926 1440 525.854V540H515.292Z" fill="#00B9B9"/>
<path opacity="0.06" fill-rule="evenodd" clip-rule="evenodd" d="M515.292 540C287.799 475.209 138.347 403.1 0 334.985V530.049C7.30039 533.412 14.6179 536.717 21.9419 540H515.292Z" fill="#00B9B9"/>
<path opacity="0.06" fill-rule="evenodd" clip-rule="evenodd" d="M601.943 364.823C879.936 437.478 1158.04 485.926 1440 525.854V439.682C1052.21 447.227 805.164 414.196 601.943 364.823Z" fill="#00B9B9"/>
<path opacity="0.06" fill-rule="evenodd" clip-rule="evenodd" d="M1440 198.068C1391.49 197.921 1344.57 196.751 1298.88 194.707C997.241 181.215 749.476 129.677 454.624 83.6604C316.808 62.1533 168.701 41.8527 0 27.2047V0H1440V198.068Z" fill="#00B9B9"/>
<path opacity="0.06" fill-rule="evenodd" clip-rule="evenodd" d="M1440 198.062C921.526 196.498 584.23 77.9805 0 27.2437V0H1440V198.062Z" fill="#00B9B9"/>
<path opacity="0.06" fill-rule="evenodd" clip-rule="evenodd" d="M1440 119.511C1175.06 66.9235 909.235 27.0886 642.531 0H0V27.2047C168.701 41.8527 316.808 62.1533 454.624 83.6604C794.132 136.646 1071.22 196.944 1440 198.063V119.511Z" fill="#00B9B9"/>
<path opacity="0.06" fill-rule="evenodd" clip-rule="evenodd" d="M827.103 418.665C467.677 377.323 276.934 288.045 0 209.32V184.844C209.82 240.003 366.305 303.482 556.81 353.421C571.632 357.307 586.666 361.111 601.943 364.823C805.164 414.196 1052.21 447.227 1440 439.682V439.975C1185.76 446.21 989.258 437.317 827.103 418.665Z" fill="#00B9B9"/>
<path opacity="0.06" fill-rule="evenodd" clip-rule="evenodd" d="M653.405 393.028C757.305 446.645 888.094 495.634 1045.74 540H515.292C287.799 475.209 138.347 403.1 0 334.985V209.315C228.732 274.338 398.666 346.561 653.405 393.028Z" fill="#00B9B9"/>
<path opacity="0.06" fill-rule="evenodd" clip-rule="evenodd" d="M0 335.936C152.892 415.211 299.009 482.547 447.366 540H21.9217C14.6045 536.721 7.2971 533.415 0 530.055V335.936Z" fill="#00B9B9"/>
<path opacity="0.06" fill-rule="evenodd" clip-rule="evenodd" d="M1440 119.507C1233.82 78.5767 1027.1 45.3667 819.859 19.8819C798.523 12.7807 776.469 6.19258 753.33 0H1440V119.507Z" fill="#00B9B9"/>
<path opacity="0.06" fill-rule="evenodd" clip-rule="evenodd" d="M454.624 83.66C316.808 62.1529 168.701 41.8523 0 27.2042V4.10547C194.446 23.0371 376.141 46.0172 467.548 85.6856C463.25 85.0089 458.942 84.3339 454.624 83.66Z" fill="#00B9B9"/>
<path opacity="0.06" fill-rule="evenodd" clip-rule="evenodd" d="M1298.88 194.707C933.969 176.526 1036.16 89.4981 819.857 19.8818C1027.1 45.3667 1233.82 78.5767 1440 119.507V198.068C1391.49 197.921 1344.57 196.751 1298.88 194.707Z" fill="#00B9B9"/>
<path opacity="0.06" fill-rule="evenodd" clip-rule="evenodd" d="M1298.95 194.711C1353.61 197.156 1400.29 200.854 1440 205.593V224.046C1400.61 213.16 1353.61 203.378 1298.95 194.711Z" fill="#00B9B9"/>
<path opacity="0.06" fill-rule="evenodd" clip-rule="evenodd" d="M143.166 91.2715C557.334 209.748 566.616 382.507 1440 434.225V439.683C1052.23 447.227 805.187 414.198 601.943 364.824C335.757 284.416 369.008 170.693 143.166 91.2715Z" fill="#00B9B9"/>
<path opacity="0.06" fill-rule="evenodd" clip-rule="evenodd" d="M0 352.665C61.4355 413.938 141.857 478.11 261.182 540H21.9318C14.6109 536.72 7.30039 533.401 0 530.04V352.665Z" fill="#00B9B9"/>
<path opacity="0.06" fill-rule="evenodd" clip-rule="evenodd" d="M0 251.109C222.292 337.579 461.701 445.592 777.161 540H515.295C287.795 475.211 138.344 403.102 0 334.989V251.109Z" fill="#00B9B9"/>
<path opacity="0.06" fill-rule="evenodd" clip-rule="evenodd" d="M1440 27.2441C855.769 77.9809 518.473 196.499 0 198.062V439.668C791.578 455.064 996.661 301.369 1440 184.828V27.2441Z" fill="#00B9B9"/>
<path opacity="0.06" fill-rule="evenodd" clip-rule="evenodd" d="M838.057 364.824C1150.2 270.533 1050.73 130.448 1440 53.5674V184.835C1213.84 244.289 1049.68 313.412 838.057 364.824Z" fill="#00B9B9"/>
<path opacity="0.06" fill-rule="evenodd" clip-rule="evenodd" d="M1440 53.5675C1050.72 130.448 1150.2 270.535 838.029 364.83C634.815 414.199 387.769 447.227 0 439.683V334.913C185.023 262.05 668.066 254.569 985.375 83.6609C1123.19 62.1536 1271.3 41.853 1440 27.2051V53.5675Z" fill="#00B9B9"/>
<path opacity="0.06" fill-rule="evenodd" clip-rule="evenodd" d="M985.375 83.6602C668.066 254.568 185.023 262.049 0 334.912V198.063C368.78 196.944 645.867 136.646 985.375 83.6602Z" fill="#00B9B9"/>
<path opacity="0.06" fill-rule="evenodd" clip-rule="evenodd" d="M1440 27.2042C1271.3 41.8523 1123.19 62.1529 985.375 83.66C690.522 129.677 442.758 181.214 141.119 194.707C612.059 189.074 904.73 89.2504 1440 41.9313V27.2041L1440 27.2042Z" fill="#00B9B9"/>
<path opacity="0.06" fill-rule="evenodd" clip-rule="evenodd" d="M141.119 194.707C95.4317 196.751 48.5085 197.921 0 198.068V205.62C39.7475 200.873 86.3839 197.155 141.119 194.707Z" fill="#00B9B9"/>
<path opacity="0.06" fill-rule="evenodd" clip-rule="evenodd" d="M1440 184.844C1230.18 240.003 1073.69 303.482 883.189 353.421C868.367 357.307 853.333 361.111 838.029 364.829C634.812 414.199 387.769 447.226 0 439.682V540H1440V184.844Z" fill="#00B9B9"/>
<path opacity="0.06" fill-rule="evenodd" clip-rule="evenodd" d="M1440 530.049C1432.7 533.412 1425.38 536.718 1418.06 540H1440V530.049Z" fill="#00B9B9"/>
<path opacity="0.06" fill-rule="evenodd" clip-rule="evenodd" d="M924.707 540C1152.2 475.209 1301.65 403.1 1440 334.985V184.844C1230.18 240.003 1073.69 303.482 883.189 353.421C868.367 357.307 853.333 361.111 838.056 364.823C560.063 437.478 281.961 485.926 0 525.854V540H924.707Z" fill="#00B9B9"/>
<path opacity="0.06" fill-rule="evenodd" clip-rule="evenodd" d="M924.707 540C1152.2 475.209 1301.65 403.1 1440 334.985V530.049C1432.7 533.412 1425.38 536.717 1418.06 540H924.707Z" fill="#00B9B9"/>
<path opacity="0.06" fill-rule="evenodd" clip-rule="evenodd" d="M838.056 364.823C560.063 437.478 281.961 485.926 0 525.854V439.682C387.789 447.227 634.835 414.196 838.056 364.823Z" fill="#00B9B9"/>
<path opacity="0.06" fill-rule="evenodd" clip-rule="evenodd" d="M0 198.068C48.5085 197.921 95.4317 196.751 141.119 194.707C442.758 181.215 690.522 129.677 985.375 83.6604C1123.19 62.1532 1271.3 41.8526 1440 27.2047V0H0V198.068Z" fill="#00B9B9"/>
<path opacity="0.06" fill-rule="evenodd" clip-rule="evenodd" d="M0 198.062C518.473 196.498 855.769 77.9805 1440 27.2437V0H0V198.062Z" fill="#00B9B9"/>
<path opacity="0.06" fill-rule="evenodd" clip-rule="evenodd" d="M0 119.511C264.94 66.9235 530.764 27.0886 797.468 0H1440V27.2047C1271.3 41.8527 1123.19 62.1533 985.375 83.6604C645.867 136.646 368.78 196.944 0 198.063V119.511Z" fill="#00B9B9"/>
<path opacity="0.06" fill-rule="evenodd" clip-rule="evenodd" d="M612.896 418.665C972.323 377.323 1163.06 288.045 1440 209.32V184.844C1230.18 240.003 1073.69 303.482 883.189 353.421C868.367 357.307 853.333 361.111 838.056 364.823C634.835 414.196 387.789 447.227 0 439.682V439.975C254.241 446.21 450.741 437.317 612.896 418.665Z" fill="#00B9B9"/>
<path opacity="0.06" fill-rule="evenodd" clip-rule="evenodd" d="M786.595 393.028C682.695 446.645 551.906 495.634 394.264 540H924.708C1152.2 475.209 1301.65 403.1 1440 334.985V209.315C1211.27 274.338 1041.33 346.561 786.595 393.028Z" fill="#00B9B9"/>
<path opacity="0.06" fill-rule="evenodd" clip-rule="evenodd" d="M1440 335.936C1287.11 415.211 1140.99 482.547 992.633 540H1418.08C1425.39 536.721 1432.7 533.415 1440 530.055V335.936Z" fill="#00B9B9"/>
<path opacity="0.06" fill-rule="evenodd" clip-rule="evenodd" d="M0 119.507C206.18 78.5769 412.895 45.3669 620.14 19.8819C641.476 12.7807 663.531 6.19258 686.669 0H0V119.507Z" fill="#00B9B9"/>
<path opacity="0.06" fill-rule="evenodd" clip-rule="evenodd" d="M985.375 83.66C1123.19 62.1528 1271.3 41.8521 1440 27.2042V4.10547C1245.55 23.0371 1063.86 46.0172 972.451 85.6856C976.749 85.0089 981.057 84.3339 985.375 83.66Z" fill="#00B9B9"/>
<path opacity="0.06" fill-rule="evenodd" clip-rule="evenodd" d="M141.119 194.707C506.03 176.526 403.834 89.4981 620.141 19.8818C412.896 45.3669 206.18 78.5769 0 119.507V198.068C48.5085 197.921 95.4317 196.751 141.119 194.707Z" fill="#00B9B9"/>
<path opacity="0.06" fill-rule="evenodd" clip-rule="evenodd" d="M141.05 194.711C86.3936 197.156 39.7076 200.854 0 205.593V224.045C39.3879 213.159 86.3872 203.378 141.05 194.711Z" fill="#00B9B9"/>
<path opacity="0.06" fill-rule="evenodd" clip-rule="evenodd" d="M1296.83 91.2706C882.665 209.747 873.384 382.506 0 434.224V439.682C387.769 447.226 634.812 414.197 838.056 364.823C1104.24 284.415 1070.99 170.692 1296.83 91.2706Z" fill="#00B9B9"/>
<path opacity="0.06" fill-rule="evenodd" clip-rule="evenodd" d="M1440 352.665C1378.56 413.938 1298.14 478.11 1178.82 540H1418.07C1425.39 536.72 1432.7 533.401 1440 530.04L1440 352.665Z" fill="#00B9B9"/>
<path opacity="0.06" fill-rule="evenodd" clip-rule="evenodd" d="M1440 251.109C1217.71 337.579 978.298 445.592 662.838 540H924.703C1152.2 475.211 1301.66 403.102 1440 334.989V251.109Z" fill="#00B9B9"/>
<path opacity="0.06" fill-rule="evenodd" clip-rule="evenodd" d="M1367.35 540C1232.05 320.914 916.005 194.427 911.834 0H267.553C226.499 296.842 636.35 373.749 947.128 540H1367.35Z" fill="#00B9B9"/>
<path opacity="0.06" fill-rule="evenodd" clip-rule="evenodd" d="M467.139 314.271C718.581 431.327 1092.14 394.024 1297.15 540H947.106C788.564 455.19 604.236 393.631 467.139 314.271Z" fill="#00B9B9"/>
<path opacity="0.06" fill-rule="evenodd" clip-rule="evenodd" d="M1297.15 540C1092.14 394.022 718.577 431.324 467.121 314.262C335.47 238.056 247.396 145.414 267.514 0H546.9C741.202 69.3837 761.152 250.525 1216.91 369.516C1274.26 421.197 1328.39 476.738 1367.45 540H1297.15Z" fill="#00B9B9"/>
<path opacity="0.06" fill-rule="evenodd" clip-rule="evenodd" d="M1216.91 369.516C761.152 250.525 741.202 69.3837 546.9 0H911.833C914.815 138.293 1075.61 242.201 1216.91 369.516Z" fill="#00B9B9"/>
<path opacity="0.06" fill-rule="evenodd" clip-rule="evenodd" d="M1367.45 540C1328.39 476.738 1274.26 421.197 1216.9 369.516C1094.19 258.946 956.763 166.034 920.779 52.9199C935.8 229.522 1202 339.274 1328.18 540H1367.45Z" fill="#00B9B9"/>
<path opacity="0.06" fill-rule="evenodd" clip-rule="evenodd" d="M920.779 52.92C915.329 35.7872 912.21 18.1907 911.818 0H891.68C904.337 14.9054 914.253 32.3942 920.779 52.92Z" fill="#00B9B9"/>
<path opacity="0.06" fill-rule="evenodd" clip-rule="evenodd" d="M947.083 540C799.99 461.318 630.715 402.636 497.545 331.196C487.182 325.638 477.037 320 467.121 314.262C335.47 238.055 247.395 145.414 267.514 0H0V540H947.083Z" fill="#00B9B9"/>
<path opacity="0.06" fill-rule="evenodd" clip-rule="evenodd" d="M26.5363 540C17.5696 537.262 8.7517 534.518 0 531.771V540H26.5363Z" fill="#00B9B9"/>
<path opacity="0.06" fill-rule="evenodd" clip-rule="evenodd" d="M0 346.765C172.775 432.076 365.066 488.12 546.705 540H947.083C799.99 461.318 630.715 402.636 497.545 331.196C487.182 325.638 477.037 320 467.139 314.271C273.393 210.024 144.198 105.736 37.7229 0H0V346.765Z" fill="#00B9B9"/>
<path opacity="0.06" fill-rule="evenodd" clip-rule="evenodd" d="M0 346.766C172.775 432.076 365.066 488.12 546.705 540H26.5363C17.5696 537.263 8.7517 534.518 0 531.772V346.766Z" fill="#00B9B9"/>
<path opacity="0.06" fill-rule="evenodd" clip-rule="evenodd" d="M467.139 314.271C273.393 210.024 144.198 105.736 37.7227 0H267.514C247.394 145.421 335.478 238.064 467.139 314.271Z" fill="#00B9B9"/>
<path opacity="0.06" fill-rule="evenodd" clip-rule="evenodd" d="M911.818 0C912.21 18.1907 915.329 35.7872 920.779 52.92C956.761 166.034 1094.19 258.946 1216.9 369.516C1274.26 421.197 1328.39 476.738 1367.45 540H1440V0H911.818Z" fill="#00B9B9"/>
<path opacity="0.06" fill-rule="evenodd" clip-rule="evenodd" d="M911.834 0C916.004 194.427 1232.05 320.914 1367.35 540H1440V0H911.834Z" fill="#00B9B9"/>
<path opacity="0.06" fill-rule="evenodd" clip-rule="evenodd" d="M1121.3 0C1261.54 99.3526 1367.76 199.037 1440 299.051V540H1367.46C1328.39 476.738 1274.26 421.197 1216.91 369.516C1075.61 242.201 914.815 138.293 911.834 0H1121.3Z" fill="#00B9B9"/>
<path opacity="0.06" fill-rule="evenodd" clip-rule="evenodd" d="M323.559 229.836C433.805 364.621 671.879 436.15 881.813 540H947.083C799.99 461.318 630.715 402.636 497.545 331.196C487.182 325.638 477.037 320 467.139 314.271C335.478 238.064 247.394 145.421 267.514 0H266.733C250.107 95.3406 273.821 169.028 323.559 229.836Z" fill="#00B9B9"/>
<path opacity="0.06" fill-rule="evenodd" clip-rule="evenodd" d="M391.924 294.973C248.945 256.011 118.308 206.965 0 147.849V346.765C172.776 432.076 365.066 488.12 546.705 540H881.823C708.43 454.225 515.835 390.5 391.924 294.973Z" fill="#00B9B9"/>
<path opacity="0.06" fill-rule="evenodd" clip-rule="evenodd" d="M544.171 540C332.771 482.665 153.208 427.872 0 372.237V531.779C8.74615 534.523 17.5604 537.263 26.5199 540H544.171Z" fill="#00B9B9"/>
<path opacity="0.06" fill-rule="evenodd" clip-rule="evenodd" d="M1121.31 0C1230.46 77.3181 1319.02 154.836 1386.98 232.553C1405.92 240.554 1423.49 248.824 1440 257.501V0H1121.31Z" fill="#00B9B9"/>
<path opacity="0.06" fill-rule="evenodd" clip-rule="evenodd" d="M1216.91 369.516C1274.26 421.197 1328.39 476.737 1367.46 540H1429.05C1378.57 467.082 1317.29 398.947 1211.51 364.669C1213.31 366.281 1215.11 367.897 1216.91 369.516Z" fill="#00B9B9"/>
<path opacity="0.06" fill-rule="evenodd" clip-rule="evenodd" d="M920.779 52.92C969.264 189.762 1201.34 151.438 1386.98 232.553C1319.02 154.836 1230.46 77.3181 1121.31 0H911.818C912.21 18.1907 915.329 35.7872 920.779 52.92Z" fill="#00B9B9"/>
<path opacity="0.06" fill-rule="evenodd" clip-rule="evenodd" d="M920.77 52.8937C914.251 32.398 904.39 14.8912 891.752 0H842.545C871.575 14.7709 897.658 32.3958 920.77 52.8937Z" fill="#00B9B9"/>
<path opacity="0.06" fill-rule="evenodd" clip-rule="evenodd" d="M1196.61 486.313C880.672 331 419.984 327.519 282.067 0H267.514C247.396 145.414 335.472 238.055 467.139 314.271C681.56 414.091 984.821 401.622 1196.61 486.313Z" fill="#00B9B9"/>
<path opacity="0.06" fill-rule="evenodd" clip-rule="evenodd" d="M499.56 540C336.167 516.962 165.041 486.804 0 442.057V531.776C8.74882 534.521 17.5982 537.263 26.5616 540H499.56ZM0 531.777C8.74718 534.523 17.5954 537.264 26.5573 540C17.5956 537.264 8.74738 534.523 0 531.777Z" fill="#00B9B9"/>
<path opacity="0.06" fill-rule="evenodd" clip-rule="evenodd" d="M770.375 540C539.792 456.64 251.756 366.862 0 248.564V346.764C172.773 432.077 365.062 488.121 546.697 540H770.375Z" fill="#00B9B9"/>
<path opacity="0.06" fill-rule="evenodd" clip-rule="evenodd" d="M72.6484 540C207.947 320.914 523.994 194.427 528.165 0H1172.45C1213.5 296.842 803.649 373.749 492.872 540H72.6484Z" fill="#00B9B9"/>
<path opacity="0.06" fill-rule="evenodd" clip-rule="evenodd" d="M972.86 314.271C721.419 431.327 347.86 394.024 142.846 540H492.893C651.434 455.19 835.763 393.631 972.86 314.271Z" fill="#00B9B9"/>
<path opacity="0.06" fill-rule="evenodd" clip-rule="evenodd" d="M142.846 540C347.86 394.022 721.423 431.324 972.878 314.262C1104.53 238.056 1192.6 145.414 1172.48 0H893.099C698.797 69.3837 678.848 250.525 223.094 369.516C165.74 421.197 111.606 476.738 72.5449 540H142.846Z" fill="#00B9B9"/>
<path opacity="0.06" fill-rule="evenodd" clip-rule="evenodd" d="M223.094 369.516C678.847 250.525 698.797 69.3837 893.098 0H528.165C525.184 138.293 364.388 242.201 223.094 369.516Z" fill="#00B9B9"/>
<path opacity="0.06" fill-rule="evenodd" clip-rule="evenodd" d="M72.5449 540C111.606 476.738 165.74 421.197 223.094 369.516C345.805 258.946 483.237 166.034 519.22 52.9199C504.199 229.522 238.003 339.274 111.817 540H72.5449Z" fill="#00B9B9"/>
<path opacity="0.06" fill-rule="evenodd" clip-rule="evenodd" d="M519.221 52.92C524.67 35.7872 527.79 18.1907 528.181 0H548.32C535.662 14.9054 525.747 32.3942 519.221 52.92Z" fill="#00B9B9"/>
<path opacity="0.06" fill-rule="evenodd" clip-rule="evenodd" d="M492.916 540C640.009 461.318 809.284 402.636 942.455 331.196C952.817 325.638 962.962 320 972.878 314.262C1104.53 238.055 1192.6 145.414 1172.48 0H1440V540H492.916Z" fill="#00B9B9"/>
<path opacity="0.06" fill-rule="evenodd" clip-rule="evenodd" d="M1413.46 540C1422.43 537.262 1431.25 534.518 1440 531.771V540H1413.46Z" fill="#00B9B9"/>
<path opacity="0.06" fill-rule="evenodd" clip-rule="evenodd" d="M1440 346.765C1267.22 432.076 1074.93 488.12 893.294 540H492.916C640.009 461.318 809.284 402.636 942.455 331.196C952.817 325.638 962.963 320 972.86 314.271C1166.61 210.024 1295.8 105.736 1402.28 0H1440V346.765Z" fill="#00B9B9"/>
<path opacity="0.06" fill-rule="evenodd" clip-rule="evenodd" d="M1440 346.766C1267.23 432.076 1074.93 488.12 893.295 540H1413.46C1422.43 537.263 1431.25 534.518 1440 531.772V346.766Z" fill="#00B9B9"/>
<path opacity="0.06" fill-rule="evenodd" clip-rule="evenodd" d="M972.86 314.271C1166.61 210.024 1295.8 105.736 1402.28 0H1172.48C1192.6 145.421 1104.52 238.064 972.86 314.271Z" fill="#00B9B9"/>
<path opacity="0.06" fill-rule="evenodd" clip-rule="evenodd" d="M528.181 0C527.789 18.1907 524.67 35.7872 519.22 52.92C483.238 166.034 345.804 258.946 223.094 369.516C165.74 421.197 111.606 476.738 72.5447 540H0V0H528.181Z" fill="#00B9B9"/>
<path opacity="0.06" fill-rule="evenodd" clip-rule="evenodd" d="M528.165 0C523.994 194.427 207.947 320.914 72.648 540H0V0H528.165Z" fill="#00B9B9"/>
<path opacity="0.06" fill-rule="evenodd" clip-rule="evenodd" d="M318.698 0C178.461 99.3526 72.2349 199.037 0 299.051V540H72.5447C111.606 476.738 165.74 421.197 223.094 369.516C364.389 242.201 525.184 138.293 528.166 0H318.698Z" fill="#00B9B9"/>
<path opacity="0.06" fill-rule="evenodd" clip-rule="evenodd" d="M1116.44 229.836C1006.19 364.621 768.12 436.15 558.186 540H492.916C640.009 461.318 809.284 402.636 942.455 331.196C952.817 325.638 962.962 320 972.86 314.271C1104.52 238.064 1192.6 145.421 1172.48 0H1173.27C1189.89 95.3406 1166.18 169.028 1116.44 229.836Z" fill="#00B9B9"/>
<path opacity="0.06" fill-rule="evenodd" clip-rule="evenodd" d="M1048.08 294.973C1191.05 256.011 1321.69 206.965 1440 147.849V346.765C1267.22 432.076 1074.93 488.12 893.294 540H558.176C731.57 454.225 924.164 390.5 1048.08 294.973" fill="#00B9B9"/>
<path opacity="0.06" fill-rule="evenodd" clip-rule="evenodd" d="M895.828 540C1107.23 482.665 1286.79 427.872 1440 372.237V531.779C1431.25 534.523 1422.44 537.263 1413.48 540H895.828Z" fill="#00B9B9"/>
<path opacity="0.06" fill-rule="evenodd" clip-rule="evenodd" d="M318.684 0C209.539 77.3181 120.979 154.836 53.0173 232.553C34.0799 240.554 16.5129 248.825 0 257.501V0H318.684Z" fill="#00B9B9"/>
<path opacity="0.06" fill-rule="evenodd" clip-rule="evenodd" d="M223.095 369.516C165.741 421.197 111.606 476.737 72.5456 540H10.9492C61.4323 467.082 122.714 398.947 228.495 364.669C226.692 366.281 224.892 367.897 223.095 369.516Z" fill="#00B9B9"/>
<path opacity="0.06" fill-rule="evenodd" clip-rule="evenodd" d="M519.22 52.92C470.735 189.762 238.662 151.438 53.0176 232.553C120.979 154.836 209.539 77.3181 318.684 0H528.181C527.79 18.1907 524.67 35.7872 519.22 52.92Z" fill="#00B9B9"/>
<path opacity="0.06" fill-rule="evenodd" clip-rule="evenodd" d="M519.229 52.8937C525.748 32.398 535.61 14.8912 548.247 0H597.454C568.424 14.7709 542.341 32.3958 519.229 52.8937Z" fill="#00B9B9"/>
<path opacity="0.06" fill-rule="evenodd" clip-rule="evenodd" d="M243.389 486.313C559.327 331 1020.01 327.519 1157.93 0H1172.48C1192.6 145.414 1104.53 238.055 972.86 314.271C758.439 414.091 455.178 401.622 243.389 486.313" fill="#00B9B9"/>
<path opacity="0.06" fill-rule="evenodd" clip-rule="evenodd" d="M940.439 540C1103.83 516.962 1274.96 486.804 1440 442.057V531.776C1431.25 534.521 1422.4 537.263 1413.44 540H940.439ZM1440 531.777C1431.25 534.523 1422.4 537.264 1413.44 540C1422.4 537.264 1431.25 534.523 1440 531.777Z" fill="#00B9B9"/>
<path opacity="0.06" fill-rule="evenodd" clip-rule="evenodd" d="M669.625 540C900.208 456.64 1188.24 366.862 1440 248.564V346.764C1267.23 432.077 1074.94 488.121 893.303 540H669.625Z" fill="#00B9B9"/>
<path opacity="0.06" fill-rule="evenodd" clip-rule="evenodd" d="M72.6484 0C207.947 219.087 523.994 345.573 528.165 540H1172.45C1213.5 243.158 803.649 166.252 492.872 0H72.6484Z" fill="#00B9B9"/>
<path opacity="0.06" fill-rule="evenodd" clip-rule="evenodd" d="M972.86 225.729C721.419 108.673 347.86 145.978 142.846 0H492.893C651.434 84.8106 835.763 146.37 972.86 225.729Z" fill="#00B9B9"/>
<path opacity="0.06" fill-rule="evenodd" clip-rule="evenodd" d="M142.846 0C347.86 145.979 721.423 108.677 972.878 225.739C1104.53 301.944 1192.6 394.587 1172.48 540H893.099C698.797 470.616 678.848 289.476 223.095 170.484C165.74 118.803 111.606 63.2628 72.5449 0H142.846Z" fill="#00B9B9"/>
<path opacity="0.06" fill-rule="evenodd" clip-rule="evenodd" d="M223.094 170.484C678.847 289.476 698.796 470.616 893.098 540H528.165C525.184 401.708 364.388 297.8 223.094 170.484Z" fill="#00B9B9"/>
<path opacity="0.06" fill-rule="evenodd" clip-rule="evenodd" d="M72.5449 0C111.606 63.2628 165.74 118.803 223.094 170.484C345.805 281.054 483.237 373.966 519.22 487.081C504.2 310.478 238.003 200.727 111.817 0H72.5451H72.5449Z" fill="#00B9B9"/>
<path opacity="0.06" fill-rule="evenodd" clip-rule="evenodd" d="M519.221 487.08C524.67 504.213 527.79 521.809 528.181 540H548.32C535.662 525.095 525.747 507.606 519.221 487.08Z" fill="#00B9B9"/>
<path opacity="0.06" fill-rule="evenodd" clip-rule="evenodd" d="M492.916 0C640.009 78.6823 809.284 137.365 942.455 208.804C952.817 214.362 962.962 220 972.878 225.739C1104.53 301.945 1192.6 394.587 1172.48 540H1440V0H492.916Z" fill="#00B9B9"/>
<path opacity="0.06" fill-rule="evenodd" clip-rule="evenodd" d="M1413.46 0C1422.43 2.73794 1431.25 5.48168 1440 8.22812V0H1413.46Z" fill="#00B9B9"/>
<path opacity="0.06" fill-rule="evenodd" clip-rule="evenodd" d="M1440 193.235C1267.22 107.925 1074.93 51.8801 893.294 0H492.916C640.009 78.6823 809.284 137.365 942.455 208.804C952.817 214.362 962.962 220 972.86 225.729C1166.61 329.977 1295.8 434.264 1402.28 540H1440L1440 193.235Z" fill="#00B9B9"/>
<path opacity="0.06" fill-rule="evenodd" clip-rule="evenodd" d="M1440 193.235C1267.23 107.925 1074.93 51.8801 893.295 0H1413.46C1422.43 2.73793 1431.25 5.48167 1440 8.22811V193.235Z" fill="#00B9B9"/>
<path opacity="0.06" fill-rule="evenodd" clip-rule="evenodd" d="M972.859 225.729C1166.61 329.976 1295.8 434.264 1402.28 540H1172.48C1192.6 394.579 1104.52 301.937 972.859 225.729Z" fill="#00B9B9"/>
<path opacity="0.06" fill-rule="evenodd" clip-rule="evenodd" d="M528.181 540C527.789 521.809 524.67 504.213 519.22 487.081C483.238 373.966 345.804 281.054 223.094 170.484C165.74 118.803 111.606 63.2628 72.5447 0H0V540H528.181Z" fill="#00B9B9"/>
<path opacity="0.06" fill-rule="evenodd" clip-rule="evenodd" d="M528.165 540C523.994 345.573 207.947 219.087 72.648 0H0V540H528.165Z" fill="#00B9B9"/>
<path opacity="0.06" fill-rule="evenodd" clip-rule="evenodd" d="M318.698 540C178.461 440.647 72.2349 340.964 0 240.95V0H72.5447C111.606 63.2628 165.74 118.803 223.094 170.484C364.389 297.8 525.184 401.708 528.166 540H318.698H318.698Z" fill="#00B9B9"/>
<path opacity="0.06" fill-rule="evenodd" clip-rule="evenodd" d="M1116.44 310.164C1006.19 175.379 768.12 103.851 558.186 0H492.916C640.009 78.6823 809.284 137.365 942.455 208.804C952.817 214.362 962.963 220 972.86 225.729C1104.52 301.937 1192.61 394.579 1172.48 540H1173.27C1189.89 444.66 1166.18 370.972 1116.44 310.164Z" fill="#00B9B9"/>
<path opacity="0.06" fill-rule="evenodd" clip-rule="evenodd" d="M1048.08 245.027C1191.05 283.989 1321.69 333.036 1440 392.152V193.235C1267.22 107.925 1074.93 51.8801 893.294 0H558.176C731.57 85.7745 924.165 149.5 1048.08 245.027Z" fill="#00B9B9"/>
<path opacity="0.06" fill-rule="evenodd" clip-rule="evenodd" d="M895.828 0C1107.23 57.3349 1286.79 112.129 1440 167.762V8.22123C1431.25 5.47695 1422.44 2.73686 1413.48 0H895.828Z" fill="#00B9B9"/>
<path opacity="0.06" fill-rule="evenodd" clip-rule="evenodd" d="M318.684 540C209.539 462.683 120.979 385.164 53.0171 307.447C34.0799 299.446 16.5129 291.176 0 282.499V540H318.684Z" fill="#00B9B9"/>
<path opacity="0.06" fill-rule="evenodd" clip-rule="evenodd" d="M223.095 170.484C165.741 118.803 111.606 63.2628 72.5456 0H10.9492C61.4323 72.9174 122.714 141.053 228.495 175.331C226.692 173.719 224.892 172.104 223.095 170.484Z" fill="#00B9B9"/>
<path opacity="0.06" fill-rule="evenodd" clip-rule="evenodd" d="M519.22 487.081C470.735 350.239 238.662 388.562 53.0176 307.447C120.979 385.165 209.539 462.683 318.684 540H528.181C527.79 521.809 524.67 504.213 519.22 487.081Z" fill="#00B9B9"/>
<path opacity="0.06" fill-rule="evenodd" clip-rule="evenodd" d="M519.229 487.106C525.748 507.603 535.61 525.11 548.247 540H597.454C568.424 525.23 542.341 507.605 519.229 487.106Z" fill="#00B9B9"/>
<path opacity="0.06" fill-rule="evenodd" clip-rule="evenodd" d="M243.389 53.6875C559.327 209 1020.01 212.481 1157.93 540H1172.48C1192.6 394.586 1104.53 301.945 972.859 225.729C758.439 125.909 455.178 138.378 243.389 53.6875Z" fill="#00B9B9"/>
<path opacity="0.06" fill-rule="evenodd" clip-rule="evenodd" d="M940.439 0C1103.83 23.0386 1274.96 53.1963 1440 97.9436V8.22447C1431.25 5.47965 1422.4 2.73794 1413.44 0H940.439Z" fill="#00B9B9"/>
<path opacity="0.06" fill-rule="evenodd" clip-rule="evenodd" d="M669.625 0C900.208 83.3598 1188.24 173.138 1440 291.435V193.236C1267.23 107.923 1074.94 51.879 893.303 0H669.625Z" fill="#00B9B9"/>
<path opacity="0.06" fill-rule="evenodd" clip-rule="evenodd" d="M1367.35 0C1232.05 219.087 916.005 345.573 911.835 540H267.553C226.499 243.158 636.35 166.252 947.128 0H1367.35Z" fill="#00B9B9"/>
<path opacity="0.06" fill-rule="evenodd" clip-rule="evenodd" d="M467.139 225.729C718.581 108.673 1092.14 145.978 1297.15 0H947.106C788.564 84.8106 604.236 146.37 467.139 225.729Z" fill="#00B9B9"/>
<path opacity="0.06" fill-rule="evenodd" clip-rule="evenodd" d="M1297.15 0C1092.14 145.979 718.577 108.677 467.122 225.739C335.47 301.944 247.396 394.587 267.514 540H546.9C741.202 470.616 761.152 289.476 1216.91 170.484C1274.26 118.803 1328.39 63.2628 1367.45 0H1297.15Z" fill="#00B9B9"/>
<path opacity="0.06" fill-rule="evenodd" clip-rule="evenodd" d="M1216.91 170.484C761.152 289.476 741.202 470.616 546.9 540H911.833C914.815 401.708 1075.61 297.8 1216.91 170.484Z" fill="#00B9B9"/>
<path opacity="0.06" fill-rule="evenodd" clip-rule="evenodd" d="M1367.45 0C1328.39 63.2628 1274.26 118.803 1216.9 170.484C1094.19 281.054 956.763 373.966 920.779 487.081C935.8 310.478 1202 200.727 1328.18 0H1367.45Z" fill="#00B9B9"/>
<path opacity="0.06" fill-rule="evenodd" clip-rule="evenodd" d="M920.779 487.08C915.329 504.213 912.21 521.809 911.818 540H891.68C904.337 525.095 914.253 507.606 920.779 487.08Z" fill="#00B9B9"/>
<path opacity="0.06" fill-rule="evenodd" clip-rule="evenodd" d="M947.083 0C799.99 78.6823 630.715 137.365 497.545 208.804C487.182 214.362 477.037 220 467.121 225.739C335.47 301.945 247.396 394.587 267.514 540H0V0H947.083Z" fill="#00B9B9"/>
<path opacity="0.06" fill-rule="evenodd" clip-rule="evenodd" d="M26.5363 0C17.5696 2.73794 8.7517 5.48168 0 8.22812V0H26.5363Z" fill="#00B9B9"/>
<path opacity="0.06" fill-rule="evenodd" clip-rule="evenodd" d="M0 193.235C172.775 107.925 365.066 51.8801 546.705 0H947.083C799.99 78.6823 630.715 137.365 497.545 208.804C487.182 214.362 477.037 220 467.139 225.729C273.393 329.977 144.198 434.264 37.7229 540H0V193.235Z" fill="#00B9B9"/>
<path opacity="0.06" fill-rule="evenodd" clip-rule="evenodd" d="M0 193.235C172.775 107.925 365.066 51.8801 546.705 0H26.5363C17.5696 2.73793 8.7517 5.48167 0 8.22811V193.235Z" fill="#00B9B9"/>
<path opacity="0.06" fill-rule="evenodd" clip-rule="evenodd" d="M467.139 225.729C273.393 329.976 144.198 434.264 37.7227 540H267.514C247.394 394.579 335.478 301.937 467.139 225.729Z" fill="#00B9B9"/>
<path opacity="0.06" fill-rule="evenodd" clip-rule="evenodd" d="M911.818 540C912.21 521.809 915.329 504.213 920.779 487.081C956.761 373.966 1094.19 281.054 1216.9 170.484C1274.26 118.803 1328.39 63.2628 1367.45 0H1440V540H911.818Z" fill="#00B9B9"/>
<path opacity="0.06" fill-rule="evenodd" clip-rule="evenodd" d="M911.834 540C916.004 345.573 1232.05 219.087 1367.35 0H1440V540H911.834Z" fill="#00B9B9"/>
<path opacity="0.06" fill-rule="evenodd" clip-rule="evenodd" d="M1121.3 540C1261.54 440.647 1367.76 340.964 1440 240.95V0H1367.45C1328.39 63.2628 1274.26 118.803 1216.91 170.484C1075.61 297.8 914.815 401.708 911.834 540H1121.3Z" fill="#00B9B9"/>
<path opacity="0.06" fill-rule="evenodd" clip-rule="evenodd" d="M323.559 310.164C433.805 175.379 671.879 103.851 881.813 0H947.083C799.99 78.6823 630.715 137.365 497.545 208.804C487.182 214.362 477.037 220 467.139 225.729C335.478 301.937 247.394 394.579 267.514 540H266.733C250.107 444.66 273.821 370.972 323.559 310.164Z" fill="#00B9B9"/>
<path opacity="0.06" fill-rule="evenodd" clip-rule="evenodd" d="M391.924 245.027C248.945 283.989 118.308 333.036 0 392.152V193.235C172.776 107.925 365.066 51.8801 546.705 0H881.823C708.43 85.7745 515.835 149.5 391.924 245.027Z" fill="#00B9B9"/>
<path opacity="0.06" fill-rule="evenodd" clip-rule="evenodd" d="M544.171 0C332.771 57.3349 153.208 112.129 0 167.762V8.22123C8.74615 5.47695 17.5604 2.73686 26.5199 0H544.171Z" fill="#00B9B9"/>
<path opacity="0.06" fill-rule="evenodd" clip-rule="evenodd" d="M1121.31 540C1230.46 462.683 1319.02 385.164 1386.98 307.447C1405.92 299.446 1423.49 291.177 1440 282.499V540H1121.31Z" fill="#00B9B9"/>
<path opacity="0.06" fill-rule="evenodd" clip-rule="evenodd" d="M1216.91 170.484C1274.26 118.803 1328.39 63.2628 1367.46 0H1429.05C1378.57 72.9174 1317.29 141.053 1211.51 175.331C1213.31 173.719 1215.11 172.104 1216.91 170.484Z" fill="#00B9B9"/>
<path opacity="0.06" fill-rule="evenodd" clip-rule="evenodd" d="M920.779 487.081C969.264 350.239 1201.34 388.562 1386.98 307.447C1319.02 385.165 1230.46 462.683 1121.31 540H911.818C912.21 521.809 915.329 504.213 920.779 487.081Z" fill="#00B9B9"/>
<path opacity="0.06" fill-rule="evenodd" clip-rule="evenodd" d="M920.77 487.106C914.251 507.603 904.39 525.11 891.752 540H842.545C871.575 525.23 897.658 507.605 920.77 487.106Z" fill="#00B9B9"/>
<path opacity="0.06" fill-rule="evenodd" clip-rule="evenodd" d="M1196.61 53.6876C880.672 209 419.984 212.481 282.067 540H267.514C247.396 394.586 335.472 301.945 467.139 225.729C681.56 125.909 984.821 138.379 1196.61 53.6876Z" fill="#00B9B9"/>
<path opacity="0.06" fill-rule="evenodd" clip-rule="evenodd" d="M499.56 0C336.167 23.0386 165.041 53.1963 0 97.9436V8.22447C8.74882 5.47965 17.5982 2.73794 26.5616 0H499.56Z" fill="#00B9B9"/>
<path opacity="0.06" fill-rule="evenodd" clip-rule="evenodd" d="M770.375 0C539.792 83.3598 251.756 173.138 0 291.435V193.236C172.773 107.923 365.062 51.879 546.697 0H770.375Z" fill="#00B9B9"/>
<path opacity="0.1" fill-rule="evenodd" clip-rule="evenodd" d="M1332.58 540C1218.69 286.856 1037.39 40.7626 417.954 364.044C238.109 445.454 98.7906 374.627 0 151.565V540H1332.58Z" fill="#00A8E1"/>
</g>
</g>
</g>
</g>
</g>
<defs>
<filter id="filter0_f_413_3418" x="-255.5" y="-196.39" width="782" height="545.59" filterUnits="userSpaceOnUse" color-interpolation-filters="sRGB">
<feFlood flood-opacity="0" result="BackgroundImageFix"/>
<feBlend mode="normal" in="SourceGraphic" in2="BackgroundImageFix" result="shape"/>
<feGaussianBlur stdDeviation="60" result="effect1_foregroundBlur_413_3418"/>
</filter>
<filter id="filter1_f_413_3418" x="1069" y="287.2" width="606.5" height="429.19" filterUnits="userSpaceOnUse" color-interpolation-filters="sRGB">
<feFlood flood-opacity="0" result="BackgroundImageFix"/>
<feBlend mode="normal" in="SourceGraphic" in2="BackgroundImageFix" result="shape"/>
<feGaussianBlur stdDeviation="50" result="effect1_foregroundBlur_413_3418"/>
</filter>
<clipPath id="clip0_413_3418">
<rect width="1440" height="540" fill="white"/>
</clipPath>
<clipPath id="clip1_413_3418">
<rect width="1440" height="540" fill="white"/>
</clipPath>
<clipPath id="clip2_413_3418">
<rect width="1440" height="540" fill="white"/>
</clipPath>
</defs>
</svg>
